<?xml version="1.0" encoding="UTF-8"?>
<svg version="1.1" viewBox="0 0 2048 1449" width="3508" height="2482" xmlns="http://www.w3.org/2000/svg">
<path transform="translate(0)" d="m0 0h2048v1449h-2048z" fill="#FCFDFD"/>
<path transform="translate(1117,655)" d="m0 0h16l13 3 13 7 12 11h1l3-16h31l-1 14-16 121-1 2h-31l1-12-10 9-13 6-7 2-13 1-16-2-12-5-8-6-7-7-8-16-3-12-1-7v-23l3-18 6-16 7-11 9-10 7-6 12-6z" fill="#2B2C2B"/>
<path transform="translate(1287,655)" d="m0 0h16l12 3 14 7 12 11 1-1 2-13 1-2h31l-1 12-16 122-1 3h-31l1-13-5 6-11 7-10 4-14 2-14-1-13-4-10-6-7-6-7-11-5-14-2-11v-27l3-17 5-13 7-12 9-10 8-7 12-6z" fill="#2B2C2B"/>
<path transform="translate(589,633)" d="m0 0h26l15 4 14 7 10 9 6 8 5 11 6 24 25 116 5 13 5 9 6 7 10 5h11l10-4 3-1-2 4-9 7-12 6-15 4-17 1-15-2-16-6-10-7-10-10-8-14-4-12-9-47-9-46-8-32-6-17-7-10-9-5-4-1h-13l-12 4-2-1 6-8 8-7 13-6z" fill="#4D96B9"/>
<path transform="translate(866,561)" d="m0 0 2 1-18 43-20 47-57 135-7 17-4 4h-6l-4-3-1-5 14-34 6-15v-7l-5-3-6 2-11 25-12 29-5 4-6-1-3-3v-7l24-57v-8l-2-2h-7l-3 3-15 35-2 4-4 2-6-1-3-4 1-8 13-30 19-45 16-38-5-1-34-2 3-3z" fill="#4D96B9"/>
<path transform="translate(537,695)" d="m0 0 6 1 3 3v7l-15 36-5 13 2 6 7 1 4-4 19-45 4-8 2-2h7l4 4v6l-16 38-9 22 1 6 3 2 7-1 11-24 6-15 4-4h7l4 5-1 6-25 60 7 1 32 2-3 3-120 60-19 10-10 5-2-1 38-90 17-40 19-45 6-14z" fill="#4D96B9"/>
<path transform="translate(978,655)" d="m0 0h17l13 3 10 6 8 9 5 12 1 6v13l-4 36-8 57h-32l7-54 3-23v-22l-4-10-6-5-5-2-13-1-11 2-10 5-7 7-7 14-4 17-9 68-1 4h-31l1-14 16-122 1-1h30l-1 14 12-9 15-7z" fill="#2C2D2C"/>
<path transform="translate(1390,660)" d="m0 0h32l4 10 18 55 3 12 2 9 6-14 8-13 16-28 14-24 4-7h36l-8 14-12 19-15 24-16 26-12 19-13 21-14 22-3-4-16-45-20-55-14-39z" fill="#2C2D2C"/>
<path transform="translate(1294,680)" d="m0 0h14l10 3 6 4 7 7 4 9 2 12-1 19-4 16-5 9-7 8-12 6-4 1h-15l-11-4-7-6-7-14-2-11v-13l3-17 7-14 6-7 10-6z" fill="#FDFEFE"/>
<path transform="translate(1125,680)" d="m0 0h14l11 4 8 6 6 10 3 12v15l-2 14-5 13-6 9-7 6-9 4-4 1h-14l-10-3-8-6-6-10-3-11-1-14 2-16 5-14 7-9 8-7z" fill="#FDFEFE"/>
<path transform="translate(1556,660)" d="m0 0h32l-18 137h-32l6-48 11-83z" fill="#2B2D2C"/>
<path transform="translate(1572,594)" d="m0 0h11l6 3 6 7 1 2v12l-4 7-5 4-5 2h-9l-8-4-5-6-1-3v-12l4-6 6-5z" fill="#2C2E2D"/>
<path transform="translate(1475,839)" d="m0 0 7 1 2 2 1-2h6v33l-4 5-7 2-9-1-5-5v-3h7l1 2h8l2-2v-5l-3 2h-9l-6-5-1-3v-13l6-7z" fill="#2E3638"/>
<path transform="translate(1206,824)" d="m0 0h6v43h-6-3l-1 1h-9l-6-5-2-6 1-10 3-5 7-3 6 1 3 2z" fill="#2D3233"/>
<path transform="translate(1286,839)" d="m0 0 7 1 2 2 1-2h6v27h-6-2l-2 1h-9l-6-5-1-3v-13l6-7z" fill="#2E3638"/>
<path transform="translate(1013,839)" d="m0 0 8 1 7 6 2 4v7l-3 6-5 4-2 1h-9l-7-4-3-5v-10l4-6z" fill="#2F383B"/>
<path transform="translate(903,825)" d="m0 0 3 3 15 33 2 6h-7l-4-8v-2h-17l-3 9-1 1h-7l2-6 16-35z" fill="#2F383B"/>
<path transform="translate(970,826)" d="m0 0h17l6 4 1 2v11l-5 5-3 1h-10v18h-6z" fill="#2D3233"/>
<path transform="translate(1243,826)" d="m0 0h17l5 3 2 4v9l-2 4-6 3h-10v18h-6z" fill="#2D3232"/>
<path transform="translate(1394,826)" d="m0 0h22v6h-16l1 9 15 1v6h-16l1 12 15 1v6h-23v-40z" fill="#2E3436"/>
<path transform="translate(1098,839)" d="m0 0 8 1 5 3 3 6v6h-21l2 6h9l5-4 4 2-1 4-4 4-3 1h-10l-5-3-3-5-1-8 3-8 6-4z" fill="#313D42"/>
<path transform="translate(1161,839)" d="m0 0 8 1 6 5 1 3v7l-20 1 3 5h8l5-4 4 4-4 5-4 2h-10l-5-3-4-6v-10l4-6 4-3z" fill="#313D41"/>
<path transform="translate(1573,839)" d="m0 0 8 1 5 4 2 4v7l-20 1 3 5h8l3-3 5 1v3l-5 5-2 1h-10l-5-3-3-3-1-3v-10l3-5 5-4z" fill="#303C40"/>
<path transform="translate(567,664)" d="m0 0 6 1 3 3v7l-9 21-4 3h-6l-4-4v-6l10-23z" fill="#4D96B9"/>
<path transform="translate(1037,840)" d="m0 0h6l6 12 1 3 7-15 3 1 6 14 7-14 1-1h5l1 2-13 26h-2l-7-16-7 16h-2l-12-25z" fill="#303C41"/>
<path transform="translate(736,804)" d="m0 0 5 1 4 5-1 6-9 21-3 2h-7l-3-3v-8l8-19 4-4z" fill="#4D96B9"/>
<path transform="translate(1338,824)" d="m0 0h6l1 18 6-3 8 1 4 4v23h-6l-1-21h-8l-3 3-1 18h-6z" fill="#2D3233"/>
<path transform="translate(1442,839)" d="m0 0 7 1 4 3 1 3v21h-7l-1-20-1-1h-6l-3 2-1 5-1 14h-6v-26l1-1h5l1 3 3-3z" fill="#324147"/>
<path transform="translate(1538,839)" d="m0 0 8 1 4 5v22h-6l-1-16-2-5h-6l-3 2-1 19h-7v-26l1-1h5l1 3 4-3z" fill="#303B3F"/>
<path transform="translate(588,706)" d="m0 0 7 1 3 4-1 7-5 10-2 1h-6l-4-4v-7l5-10z" fill="#4D96B9"/>
<path transform="translate(710,774)" d="m0 0 7 3 1 7-5 11-2 2h-7l-4-4v-6l5-10z" fill="#4D96B9"/>
<path transform="translate(932,826)" d="m0 0h7v41h-7z" fill="#2F393C"/>
<path transform="translate(1317,830)" d="m0 0h6v10l5 1v5h-5v21h-6v-21h-5v-5l5-1z" fill="#2D3334"/>
<path transform="translate(1136,839)" d="m0 0 6 1-1 6h-7l-2 5-1 16h-6v-27h6l1 2z" fill="#2D3233"/>
<path transform="translate(1013,845)" d="m0 0 7 1 3 4v8l-4 4h-7l-4-4-1-6 3-5z" fill="#FDFEFE"/>
<path transform="translate(1476,845)" d="m0 0 7 1 2 3v9l-3 4h-8l-3-5 1-9z" fill="#FDFEFE"/>
<path transform="translate(1287,845)" d="m0 0 7 1 2 3v9l-3 4h-8l-3-5 1-9z" fill="#FDFEFE"/>
<path transform="translate(1197,845)" d="m0 0 6 1 3 4v8l-3 4h-8l-3-4v-8z" fill="#FDFEFE"/>
<path transform="translate(1505,840)" d="m0 0h6v27h-6z" fill="#2C2E2D"/>
<path transform="translate(977,832)" d="m0 0 9 1 1 1v7l-3 2h-7z" fill="#FDFEFE"/>
<path transform="translate(1250,832)" d="m0 0 9 1 1 2v6l-3 2h-7z" fill="#FDFEFE"/>
<path transform="translate(903,838)" d="m0 0 2 3 4 10h-10l1-5z" fill="#FDFEFE"/>
<path transform="translate(1572,845)" d="m0 0h6l3 2v3h-13l2-4z" fill="#FDFEFE"/>
<path transform="translate(1160,845)" d="m0 0h6l4 4v1h-14l2-4z" fill="#FDFEFE"/>
<path transform="translate(1097,845)" d="m0 0h7l3 3v2h-13l2-4z" fill="#FDFEFE"/>
<path transform="translate(1506,825)" d="m0 0 5 1 1 4-2 3-5-1-1-5z" fill="#324248"/>
</svg>
